<?xml version="1.0" encoding="UTF-8" standalone="no"?>
<svg width="15px" height="18px" viewBox="0 0 15 18" version="1.1" xmlns="http://www.w3.org/2000/svg" xmlns:xlink="http://www.w3.org/1999/xlink" xmlns:sketch="http://www.bohemiancoding.com/sketch/ns">
    <!-- Generator: Sketch 3.4.2 (15857) - http://www.bohemiancoding.com/sketch -->
    <title>symbol_ellipsis@1x</title>
    <desc>Created with Sketch.</desc>
    <defs></defs>
    <g id="Page-1" stroke="none" stroke-width="1" fill="none" fill-rule="evenodd" sketch:type="MSPage">
        <g id="symbol_ellipsis" sketch:type="MSArtboardGroup" fill="#3B3B3B">
            <g id="…-+-…" sketch:type="MSLayerGroup">
                <path d="M7.50399999,8.248 C7.80266815,8.248 8.05599895,8.35199896 8.26399999,8.56 C8.47200103,8.76800104 8.57599999,9.02399848 8.57599999,9.328 C8.57599999,9.63200152 8.47200103,9.88799896 8.26399999,10.096 C8.05599895,10.304001 7.80533479,10.408 7.51199999,10.408 C7.21866519,10.408 6.96533439,10.3013344 6.75199999,10.088 C6.53866559,9.8746656 6.43199999,9.61866816 6.43199999,9.32 C6.43199999,9.02133184 6.53866559,8.76800104 6.75199999,8.56 C6.96533439,8.35199896 7.21599855,8.248 7.50399999,8.248 L7.50399999,8.248 Z" id="…-copy" sketch:type="MSShapeGroup"></path>
                <path d="M2.17599999,8.264 C2.47466815,8.264 2.72799895,8.36799896 2.93599999,8.576 C3.14400103,8.78400104 3.24799999,9.03999848 3.24799999,9.344 C3.24799999,9.64800152 3.14400103,9.90399896 2.93599999,10.112 C2.72799895,10.320001 2.47733479,10.424 2.18399999,10.424 C1.89066519,10.424 1.63733439,10.3173344 1.42399999,10.104 C1.21066559,9.8906656 1.10399999,9.63466816 1.10399999,9.336 C1.10399999,9.03733184 1.21066559,8.78400104 1.42399999,8.576 C1.63733439,8.36799896 1.88799855,8.264 2.17599999,8.264 L2.17599999,8.264 Z" id="Path" sketch:type="MSShapeGroup"></path>
                <path d="M12.912,8.264 C13.2106682,8.264 13.463999,8.36799896 13.672,8.576 C13.880001,8.78400104 13.984,9.03999848 13.984,9.344 C13.984,9.64800152 13.880001,9.90399896 13.672,10.112 C13.463999,10.320001 13.2133348,10.424 12.92,10.424 C12.6266652,10.424 12.3733344,10.3173344 12.16,10.104 C11.9466656,9.8906656 11.84,9.63466816 11.84,9.336 C11.84,9.03733184 11.9466656,8.78400104 12.16,8.576 C12.3733344,8.36799896 12.6239986,8.264 12.912,8.264 L12.912,8.264 Z" id="Path" sketch:type="MSShapeGroup"></path>
            </g>
        </g>
    </g>
</svg>